<svg xmlns="http://www.w3.org/2000/svg" viewBox="0 0 128 128" fill="none" role="img" aria-labelledby="title desc">
  <title id="title">Qore AI monochrome light mark</title>
  <desc id="desc">Light monochrome QoreDB database mark with an intelligent Q signal</desc>
  <defs>
    <mask id="qore-ai-loupe-clearance" maskUnits="userSpaceOnUse" x="0" y="0" width="128" height="128">
      <rect width="128" height="128" fill="white"/>
      <circle cx="96" cy="95" r="21" fill="black"/>
      <path d="m106.5 105.5 10 10" stroke="black" stroke-width="13" stroke-linecap="round"/>
    </mask>
  </defs>
  <g mask="url(#qore-ai-loupe-clearance)" color="#F4F6FA">
    <g stroke="currentColor" stroke-linejoin="round">
      <path d="M64 8 112 36v56l-48 28-48-28V36L64 8Z" stroke-width="10"/>
      <path d="M64 27 95 45v37L64 100 33 82V45l31-18Z" stroke-width="7"/>
    </g>
    <path d="m64 47 15 8.5L64 64l-15-8.5L64 47Zm-15 8.5L64 64v19l-15-8.5v-19Zm30 0L64 64v19l15-8.5v-19Z" fill="currentColor"/>
  </g>
  <g color="#F4F6FA">
    <circle cx="96" cy="95" r="17" stroke="currentColor" stroke-width="6"/>
    <path d="m106.5 105.5 10 10" stroke="currentColor" stroke-width="7" stroke-linecap="round"/>
    <path d="M96 86c1.12 5.62 3.38 7.88 9 9-5.62 1.12-7.88 3.38-9 9-1.12-5.62-3.38-7.88-9-9 5.62-1.12 7.88-3.38 9-9Z" fill="currentColor"/>
  </g>
</svg>
